<svg>
  <symbol id="external-link" class="fill-current h-full w-full" style="width: 100%; height: 100%" viewBox="0 0 20 20" xmlns="http://www.w3.org/2000/svg">
    <g clip-path="url(#clip0)">
      <path d="M18.9656 0L20 0.966047L9.03438 11.2L8 10.2346L18.9656 0Z"/>
      <path d="M20 7.2H18.56V1.44H12.8V0H20V7.2Z"/>
      <path d="M16.9846 20H2.21538C0.96 20 0 19.04 0 17.7846V3.01537C0 1.75999 0.96 0.799988 2.21538 0.799988H10.3385V2.27691H2.21538C1.77231 2.27691 1.47692 2.5723 1.47692 3.01537V17.7846C1.47692 18.2277 1.77231 18.5231 2.21538 18.5231H16.9846C17.4277 18.5231 17.7231 18.2277 17.7231 17.7846V9.66153H19.2V17.7846C19.2 19.04 18.24 20 16.9846 20Z"/>
    </g>
    <defs>
      <clipPath id="clip0">
        <rect width="20" height="20" fill="white"/>
      </clipPath>
    </defs>
  </symbol>

  <symbol id="star-empty" viewBox="0 0 20 20" xmlns="http://www.w3.org/2000/svg">
    <path d="M8.78803 0.753C9.28303 -0.251 10.714 -0.251 11.209 0.753L13.567 5.53L18.84 6.296C19.947 6.457 20.389 7.818 19.588 8.599L15.772 12.319L16.673 17.569C16.863 18.672 15.705 19.513 14.714 18.993L9.99803 16.513L5.28303 18.993C4.29303 19.513 3.13503 18.673 3.32303 17.569L4.22403 12.319L0.409031 8.599C-0.391969 7.819 0.0500314 6.457 1.15703 6.296L6.43003 5.53L8.78803 0.753ZM9.99803 1.689L7.74003 6.265C7.64314 6.46112 7.50005 6.63076 7.32306 6.75932C7.14608 6.88788 6.9405 6.97151 6.72403 7.003L1.67403 7.737L5.32803 11.299C5.64603 11.609 5.79103 12.056 5.71603 12.494L4.85403 17.524L9.37003 15.149C9.56384 15.047 9.77954 14.9938 9.99853 14.9938C10.2175 14.9938 10.4332 15.047 10.627 15.149L15.143 17.523L14.281 12.494C14.244 12.2783 14.2599 12.0568 14.3275 11.8486C14.3951 11.6404 14.5123 11.4518 14.669 11.299L18.323 7.737L13.273 7.003C13.0566 6.97151 12.851 6.88788 12.674 6.75932C12.497 6.63076 12.3539 6.46112 12.257 6.265L9.99803 1.689Z"/>
  </symbol>

  <symbol id="star-full" viewBox="0 0 20 20" xmlns="http://www.w3.org/2000/svg">
    <path d="M19.3536 7.04257L13.358 6.1301L10.6778 0.440169C10.6046 0.284382 10.4841 0.158269 10.3354 0.0816119C9.96227 -0.111267 9.50887 0.0494654 9.32232 0.440169L6.64213 6.1301L0.646516 7.04257C0.481218 7.0673 0.330088 7.1489 0.214379 7.27254C0.0744931 7.4231 -0.00259025 7.62566 6.6464e-05 7.8357C0.00272317 8.04575 0.0849026 8.2461 0.228547 8.39272L4.56645 12.8215L3.5416 19.0753C3.51757 19.2207 3.53294 19.3704 3.58598 19.5071C3.63901 19.6439 3.72759 19.7624 3.84166 19.8492C3.95573 19.9359 4.09074 19.9875 4.23137 19.998C4.37199 20.0085 4.51262 19.9775 4.63729 19.9086L10 16.9561L15.3628 19.9086C15.5092 19.9902 15.6792 20.0174 15.8422 19.9877C16.2531 19.9135 16.5293 19.5055 16.4585 19.0753L15.4336 12.8215L19.7715 8.39272C19.8896 8.27156 19.9675 8.1133 19.9912 7.9402C20.0549 7.50746 19.7668 7.10686 19.3536 7.04257V7.04257Z"/>
  </symbol>

  <symbol id="looking-class" viewBox="0 0 22 22" xmlns="http://www.w3.org/2000/svg">
    <path d="M19.3462 21.5088L12.2024 14.3638C10.6697 15.4535 8.78348 15.9276 6.91763 15.6921C5.05179 15.4566 3.34251 14.5288 2.12854 13.0924C0.914572 11.6561 0.284526 9.81609 0.363272 7.93709C0.442018 6.0581 1.22381 4.27727 2.5537 2.94753C3.88323 1.61722 5.66406 0.834991 7.54319 0.755906C9.42232 0.676822 11.2626 1.30665 12.6992 2.52055C14.1358 3.73444 15.0639 5.4438 15.2995 7.30977C15.5351 9.17575 15.061 11.0621 13.9712 12.595L21.1149 19.74L19.3474 21.5075L19.3462 21.5088V21.5088ZM7.8562 3.25003C6.70627 3.24976 5.5914 3.64587 4.69943 4.37161C3.80745 5.09736 3.19289 6.10837 2.95929 7.23432C2.72569 8.36027 2.88734 9.53232 3.41699 10.553C3.94664 11.5737 4.81192 12.3806 5.86705 12.8378C6.92217 13.295 8.10264 13.3746 9.20956 13.0631C10.3165 12.7515 11.2822 12.068 11.944 11.1276C12.6058 10.1872 12.9232 9.04742 12.8428 7.90031C12.7624 6.7532 12.289 5.66888 11.5025 4.83003L12.2587 5.58003L11.4062 4.73003L11.3912 4.71503C10.9282 4.24914 10.3773 3.87977 9.7705 3.62829C9.16371 3.37682 8.51304 3.24825 7.8562 3.25003V3.25003Z"/>
  </symbol>

  <symbol id="game-controller" viewBox="0 0 29 22" xmlns="http://www.w3.org/2000/svg">
    <path d="M28.0119 16.9109L25.7227 4.84766C25.2035 2.4834 24.375 0.6875 20.5664 0.6875H8.49612C4.62893 0.6875 3.85901 2.4834 3.33987 4.84766L1.05471 16.9109C0.644553 18.9102 1.31428 20.4998 3.00998 21.1186C4.70569 21.7373 6.03518 20.7852 6.98323 18.9277L7.88674 17.1395C7.96499 16.9847 8.08462 16.8547 8.23233 16.7639C8.38005 16.6731 8.55006 16.625 8.72346 16.625H20.3414C20.5148 16.625 20.6848 16.6731 20.8326 16.7639C20.9803 16.8547 21.0999 16.9847 21.1781 17.1395L22.0817 18.9277C23.0274 20.7852 24.3598 21.7402 26.0549 21.1186C27.75 20.4969 28.418 18.9102 28.0119 16.9109ZM13.125 10.0625H10.3125V12.875H8.43752V10.0625H5.62502V8.1875H8.43752V5.375H10.3125V8.1875H13.125V10.0625ZM17.1094 10.2969C16.8776 10.2969 16.6511 10.2281 16.4583 10.0994C16.2656 9.97061 16.1154 9.78759 16.0267 9.57346C15.938 9.35933 15.9148 9.1237 15.96 8.89638C16.0053 8.66906 16.1169 8.46025 16.2808 8.29636C16.4446 8.13247 16.6535 8.02086 16.8808 7.97564C17.1081 7.93043 17.3437 7.95363 17.5579 8.04233C17.772 8.13103 17.955 8.28123 18.0838 8.47394C18.2125 8.66666 18.2813 8.89322 18.2813 9.125C18.2813 9.4358 18.1578 9.73387 17.938 9.95364C17.7183 10.1734 17.4202 10.2969 17.1094 10.2969ZM19.6875 12.875C19.4557 12.875 19.2292 12.8063 19.0365 12.6775C18.8437 12.5487 18.6935 12.3657 18.6048 12.1516C18.5162 11.9374 18.4929 11.7018 18.5382 11.4745C18.5834 11.2472 18.695 11.0384 18.8589 10.8745C19.0228 10.7106 19.2316 10.599 19.4589 10.5538C19.6862 10.5085 19.9218 10.5318 20.136 10.6205C20.3501 10.7092 20.5331 10.8594 20.6619 11.0521C20.7907 11.2448 20.8594 11.4713 20.8594 11.7031C20.8594 12.0139 20.7359 12.312 20.5162 12.5318C20.2964 12.7515 19.9983 12.875 19.6875 12.875ZM19.6875 7.71875C19.4557 7.71875 19.2292 7.65002 19.0365 7.52125C18.8437 7.39249 18.6935 7.20946 18.6048 6.99533C18.5162 6.7812 18.4929 6.54557 18.5382 6.31825C18.5834 6.09093 18.695 5.88212 18.8589 5.71823C19.0228 5.55434 19.2316 5.44273 19.4589 5.39752C19.6862 5.3523 19.9218 5.37551 20.136 5.4642C20.3501 5.5529 20.5331 5.7031 20.6619 5.89582C20.7907 6.08853 20.8594 6.3151 20.8594 6.54688C20.8594 6.85768 20.7359 7.15575 20.5162 7.37552C20.2964 7.59528 19.9983 7.71875 19.6875 7.71875ZM22.2656 10.2969C22.0339 10.2969 21.8073 10.2281 21.6146 10.0994C21.4219 9.97061 21.2717 9.78759 21.183 9.57346C21.0943 9.35933 21.0711 9.1237 21.1163 8.89638C21.1615 8.66906 21.2731 8.46025 21.437 8.29636C21.6009 8.13247 21.8097 8.02086 22.037 7.97564C22.2643 7.93043 22.5 7.95363 22.7141 8.04233C22.9282 8.13103 23.1113 8.28123 23.24 8.47394C23.3688 8.66666 23.4375 8.89322 23.4375 9.125C23.4375 9.4358 23.3141 9.73387 23.0943 9.95364C22.8745 10.1734 22.5764 10.2969 22.2656 10.2969Z" />
  </symbol>

  <symbol id="people" viewBox="0 0 30 24" xmlns="http://www.w3.org/2000/svg">
    <path d="M13.125 23.25C13.125 23.25 11.25 23.25 11.25 21.375C11.25 19.5 13.125 13.875 20.625 13.875C28.125 13.875 30 19.5 30 21.375C30 23.25 28.125 23.25 28.125 23.25H13.125ZM20.625 12C22.1168 12 23.5476 11.4074 24.6025 10.3525C25.6574 9.29758 26.25 7.86684 26.25 6.375C26.25 4.88316 25.6574 3.45242 24.6025 2.39752C23.5476 1.34263 22.1168 0.75 20.625 0.75C19.1332 0.75 17.7024 1.34263 16.6475 2.39752C15.5926 3.45242 15 4.88316 15 6.375C15 7.86684 15.5926 9.29758 16.6475 10.3525C17.7024 11.4074 19.1332 12 20.625 12Z" />
    <path fill-rule="evenodd" clip-rule="evenodd" d="M9.78 23.25C9.50204 22.6647 9.36342 22.0229 9.375 21.375C9.375 18.8344 10.65 16.2188 13.005 14.4C11.8295 14.0378 10.6049 13.8607 9.375 13.875C1.875 13.875 0 19.5 0 21.375C0 23.25 1.875 23.25 1.875 23.25H9.78Z" />
    <path d="M8.4375 12C9.6807 12 10.873 11.5061 11.7521 10.6271C12.6311 9.74799 13.125 8.5557 13.125 7.3125C13.125 6.0693 12.6311 4.87701 11.7521 3.99794C10.873 3.11886 9.6807 2.625 8.4375 2.625C7.1943 2.625 6.00201 3.11886 5.12294 3.99794C4.24386 4.87701 3.75 6.0693 3.75 7.3125C3.75 8.5557 4.24386 9.74799 5.12294 10.6271C6.00201 11.5061 7.1943 12 8.4375 12Z" />
  </symbol>

  <symbol id="close" viewBox="0 0 17 18" xmlns="http://www.w3.org/2000/svg">
    <path d="M15.2545 0.984985L8.49996 7.70489L1.74538 0.984985L0.041626 2.67999L6.79621 9.3999L0.041626 16.1198L1.74538 17.8148L8.49996 11.0949L15.2545 17.8148L16.9583 16.1198L10.2037 9.3999L16.9583 2.67999L15.2545 0.984985Z" />
  </symbol>
  <symbol id="video-reel" viewBox="0 0 20 20" xmlns="http://www.w3.org/2000/svg">
    <path d="M16.9925 3.04689V3.73126H14.18V3.04626H5.03876V3.73126H2.22626V3.04626H1.60126V16.3275H2.22626V15.6438H5.03876V16.3281H14.1794V15.6438H16.9919V16.3281H17.7731V3.04689H16.9925ZM5.03876 14.825H2.22626V12.8713H5.03876V14.825ZM5.03876 12.05H2.22626V10.0975H5.03876V12.05ZM5.03876 9.27751H2.22626V7.32502H5.03876V9.27751ZM5.03876 6.50377H2.22626V4.55001H5.03876V6.50377ZM7.02938 12.8688V6.09626L12.8931 9.48252L7.02938 12.8688ZM16.9919 14.825H14.1794V12.8713H16.9919V14.825ZM16.9919 12.05H14.1794V10.0975H16.9919V12.05ZM16.9919 9.27751H14.1794V7.32502H16.9919V9.27751ZM16.9919 6.50377H14.1794V4.55001H16.9919V6.50377Z"/>
  </symbol>
  <symbol id="video-camera" viewBox="0 0 20 20" xmlns="http://www.w3.org/2000/svg">
    <path d="M13.125 16.25H2.5C2.16848 16.25 1.85054 16.1183 1.61612 15.8839C1.3817 15.6495 1.25 15.3315 1.25 15V5C1.25 4.66848 1.3817 4.35054 1.61612 4.11612C1.85054 3.8817 2.16848 3.75 2.5 3.75H13.125C13.4565 3.75 13.7745 3.8817 14.0089 4.11612C14.2433 4.35054 14.375 4.66848 14.375 5V7.5375L17.7625 5.11875C17.8558 5.05233 17.9655 5.01282 18.0797 5.00452C18.1939 4.99623 18.3082 5.01947 18.4101 5.07171C18.512 5.12395 18.5976 5.20318 18.6576 5.30075C18.7175 5.39833 18.7495 5.51049 18.75 5.625V14.375C18.7495 14.4895 18.7175 14.6017 18.6576 14.6992C18.5976 14.7968 18.512 14.8761 18.4101 14.9283C18.3082 14.9805 18.1939 15.0038 18.0797 14.9955C17.9655 14.9872 17.8558 14.9477 17.7625 14.8812L14.375 12.4625V15C14.375 15.3315 14.2433 15.6495 14.0089 15.8839C13.7745 16.1183 13.4565 16.25 13.125 16.25Z"/>
  </symbol>
  <symbol id="video-upload" viewBox="0 0 20 20" xmlns="http://www.w3.org/2000/svg">
    <path fill-rule="evenodd" clip-rule="evenodd" d="M5.76084 5.85748C6.45918 4.80998 8.02168 3.33331 10.4167 3.33331C12.1917 3.33331 13.4583 4.23331 14.2558 5.27498C14.7725 5.95196 15.1377 6.73207 15.3267 7.56248C15.9808 7.66831 16.7392 7.92081 17.4142 8.40748C18.41 9.12331 19.1667 10.3108 19.1667 12.0833C19.1667 13.855 18.41 15.0425 17.4142 15.76C16.4608 16.4458 15.3417 16.6666 14.5833 16.6666H10.8333V11.1783L11.9108 12.2558C12.068 12.4076 12.2785 12.4916 12.497 12.4897C12.7155 12.4878 12.9245 12.4002 13.079 12.2457C13.2335 12.0912 13.3212 11.8821 13.3231 11.6636C13.325 11.4451 13.241 11.2346 13.0892 11.0775L10.5892 8.57748C10.4329 8.42125 10.221 8.33349 10 8.33349C9.77904 8.33349 9.56712 8.42125 9.41084 8.57748L6.91084 11.0775C6.83125 11.1544 6.76777 11.2463 6.72409 11.348C6.68042 11.4496 6.65743 11.559 6.65647 11.6696C6.65551 11.7803 6.67659 11.89 6.71849 11.9924C6.76039 12.0949 6.82227 12.1879 6.90051 12.2661C6.97876 12.3444 7.0718 12.4063 7.17421 12.4482C7.27663 12.4901 7.38636 12.5111 7.49701 12.5102C7.60766 12.5092 7.71701 12.4862 7.81868 12.4426C7.92035 12.3989 8.0123 12.3354 8.08918 12.2558L9.16668 11.1783V16.6666H6.25001C5.35251 16.6666 4.02501 16.4041 2.89834 15.5933C1.72918 14.7508 0.833344 13.355 0.833344 11.25C0.833344 9.14498 1.72918 7.74915 2.89834 6.90665C3.83501 6.23248 4.90918 5.93748 5.76084 5.85665V5.85748Z"/>
  </symbol>

</svg>
